<svg xmlns="http://www.w3.org/2000/svg" width="1020" height="190" viewBox="0 0 1020 190" role="img">
  <defs>
    <marker id="arrow" markerWidth="10" markerHeight="10" refX="8" refY="3" orient="auto" markerUnits="strokeWidth">
      <path d="M0,0 L0,6 L9,3 z" fill="#111827"/>
    </marker>
  </defs>
  <rect width="100%" height="100%" fill="#ffffff"/>
  <rect x="60" y="70" width="140" height="64" rx="8" fill="#fef3c7" stroke="#92400e" stroke-width="2"/>
  <text x="130.0" y="108.0" text-anchor="middle" font-family="Arial, 'PingFang SC', 'Microsoft YaHei', sans-serif" font-size="15" font-weight="600" fill="#0f172a">
  <tspan x="130.0" dy="0">业务需求</tspan>
  </text>
  <rect x="250" y="70" width="140" height="64" rx="8" fill="#fef3c7" stroke="#92400e" stroke-width="2"/>
  <text x="320.0" y="108.0" text-anchor="middle" font-family="Arial, 'PingFang SC', 'Microsoft YaHei', sans-serif" font-size="15" font-weight="600" fill="#0f172a">
  <tspan x="320.0" dy="0">业务入口</tspan>
  </text>
  <rect x="440" y="70" width="140" height="64" rx="8" fill="#e0f2fe" stroke="#075985" stroke-width="2"/>
  <text x="510.0" y="108.0" text-anchor="middle" font-family="Arial, 'PingFang SC', 'Microsoft YaHei', sans-serif" font-size="15" font-weight="600" fill="#0f172a">
  <tspan x="510.0" dy="0">LangGraph</tspan>
  </text>
  <rect x="630" y="70" width="140" height="64" rx="8" fill="#dcfce7" stroke="#166534" stroke-width="2"/>
  <text x="700.0" y="108.0" text-anchor="middle" font-family="Arial, 'PingFang SC', 'Microsoft YaHei', sans-serif" font-size="15" font-weight="600" fill="#0f172a">
  <tspan x="700.0" dy="0">外部能力</tspan>
  </text>
  <rect x="820" y="70" width="140" height="64" rx="8" fill="#dcfce7" stroke="#166534" stroke-width="2"/>
  <text x="890.0" y="108.0" text-anchor="middle" font-family="Arial, 'PingFang SC', 'Microsoft YaHei', sans-serif" font-size="15" font-weight="600" fill="#0f172a">
  <tspan x="890.0" dy="0">业务结果</tspan>
  </text>
  <line x1="200" y1="102" x2="250" y2="102" stroke="#111827" stroke-width="2" marker-end="url(#arrow)"/>
  <line x1="390" y1="102" x2="440" y2="102" stroke="#111827" stroke-width="2" marker-end="url(#arrow)"/>
  <line x1="580" y1="102" x2="630" y2="102" stroke="#111827" stroke-width="2" marker-end="url(#arrow)"/>
  <line x1="770" y1="102" x2="820" y2="102" stroke="#111827" stroke-width="2" marker-end="url(#arrow)"/>
  <path d="M700 70 C760 20 390 20 510 70" fill="none" stroke="#111827" stroke-width="2" marker-end="url(#arrow)"/>
</svg>
